<svg xmlns="http://www.w3.org/2000/svg" viewBox="0 0 600 600"><defs><style>.cls-1{isolation:isolate;}.cls-2,.cls-3,.cls-4,.cls-5{fill:#fff;}.cls-2{opacity:0.95;}.cls-3{opacity:0.81;}.cls-4{mix-blend-mode:multiply;}.cls-5{opacity:0.74;}</style></defs><g class="cls-1"><g id="Layer_1" data-name="Layer 1"><path class="cls-2" d="M103.94,186.77c-47.63,28.51-60.28,10.28-22.1-35.23s169.74-123.15,340.72-91C601.2,94.05,646.87,286,537.08,436.38,419.23,597.82,240.67,609.73,133.3,496.58,14.15,371,109.74,222.42,247.83,200,400.39,175.21,420.23,363.7,287,369.6c-17,.75-20.51-11.85-20.05-71.24.3-38.28-12.36-79.5-58.73-61.66-52.72,20.28-50.45,72.85-38,126.27,16.87,72.16,36.77,84.49,71.43,86.71,129,8.26,225.67-35.56,233.76-168.94C484.23,135.38,290.41,75.18,103.94,186.77Z"/><path class="cls-3" d="M422.56,60.5a254.39,254.39,0,0,1,36.32,9.61C402.89,36.05,324.09,29,243.47,38c-65.86,7.34-117.36-7.24-128,8.65-16.82,25.11-2.37,44,27.67,57.29C205.87,68.28,304.88,38.4,422.56,60.5Z"/><path class="cls-4" d="M475.42,280.74c-8.09,133.38-104.79,177.2-233.76,168.94a93.06,93.06,0,0,1-18.54-2.79c72.73,22,282.07,19.87,311.39-161.13C552.62,174,518.82,106.57,458.88,70.11a254.39,254.39,0,0,0-36.32-9.61c-117.68-22.1-216.69,7.78-279.43,43.4,37.94,16.81,100.76,24.75,157,25.12h0C404.54,130.21,481,188.22,475.42,280.74Z"/><path class="cls-5" d="M133.3,496.58C14.15,371,109.74,222.42,247.83,200c1.93-.31,3.82-.58,5.71-.83C102.15,215.9-13.8,311.68,6.48,414.64,17.57,470.94,78.69,506,153.34,515.55A258.23,258.23,0,0,1,133.3,496.58Z"/><path class="cls-5" d="M537.08,436.38c-49.17,67.37-108.92,108.67-169.66,125.74a276.71,276.71,0,0,0,119.52-1.31c73.95-17.22,106.92-107.62,91.83-201.29A320.16,320.16,0,0,1,537.08,436.38Z"/></g></g></svg>